<?xml version="1.0" encoding="UTF-8"?>
<svg xmlns="http://www.w3.org/2000/svg" version="1.1" viewBox="0 0 456 456">
  <defs>
    <style>
      .cls-1 {
        fill: #fff;
      }
    </style>
  </defs>
  <!-- Generator: Adobe Illustrator 28.7.1, SVG Export Plug-In . SVG Version: 1.2.0 Build 142)  -->
  <g>
    <g id="Layer_2">
      <g>
        <path class="cls-1" d="M56,228.5c0,3.3-.8,5.9-2.5,7.6s-4.1,2.6-7.3,2.6-5.7-.6-7.9-1.8v-6.5c2.7,1.7,5.1,2.6,7.3,2.6s2.2-.3,2.9-1,1-1.6,1-2.8-.4-2.3-1.1-3.2-2-2.1-3.8-3.3c-1.5-1.1-2.7-2.1-3.5-3s-1.4-2-1.8-3.2-.6-2.6-.6-4.2c0-3,.8-5.5,2.5-7.2s4-2.7,6.8-2.7,5.3.8,7.9,2.3l-2.2,5.3c-.8-.5-1.6-.9-2.4-1.2s-1.8-.5-2.7-.5-1.9.4-2.5,1.1-.9,1.7-.9,2.9.3,2.2,1,3.1,1.9,1.9,3.6,3c2.3,1.6,3.9,3.1,4.8,4.8s1.4,3.5,1.4,5.5Z"/>
        <path class="cls-1" d="M74.7,238.3l-.8-3.5h-.3c-.6,1.2-1.5,2.2-2.6,2.9-1.1.7-2.4,1.1-3.8,1.1-2.4,0-4.3-.8-5.5-2.5s-1.9-4.1-1.9-7.4v-17.7h6.5v16.1c0,2,.2,3.5.7,4.5s1.2,1.5,2.3,1.5,2.4-.7,3.1-2.1,1-3.7,1-7v-13h6.5v27.1h-5.2Z"/>
        <path class="cls-1" d="M97.3,238.8c-1.2,0-2.2-.3-3.1-.8-.9-.5-1.7-1.5-2.5-2.8h-.3c.3,2.2.4,3.5.4,4v11.1h-6.5v-39h5l1.1,3.5h.3c1.3-2.7,3.3-4,5.9-4s4.4,1.2,5.8,3.7,2.1,5.9,2.1,10.3-.7,7.8-2.2,10.3-3.4,3.7-5.9,3.7ZM95.3,216.2c-1.3,0-2.2.6-2.7,1.8s-.9,3.1-.9,5.8v.9c0,3,.3,5.2.9,6.5s1.5,2,2.8,2c2.3,0,3.4-2.9,3.4-8.6s-.3-4.9-.8-6.3-1.4-2.1-2.6-2.1Z"/>
        <path class="cls-1" d="M119.9,238.8c-3.4,0-6.1-1.2-8-3.6-2-2.4-2.9-5.8-2.9-10.2s.9-8,2.6-10.5,4.2-3.8,7.4-3.8,5.3,1.1,7,3.2,2.6,5.2,2.6,9v3.5h-13c0,2.4.5,4.2,1.5,5.4s2.2,1.8,3.9,1.8,4.3-.7,6.5-2v5.3c-2.1,1.2-4.6,1.9-7.5,1.9ZM119,215.7c-.9,0-1.7.5-2.3,1.5s-.9,2.5-1,4.6h6.6c0-2-.3-3.5-.9-4.5s-1.3-1.5-2.3-1.5Z"/>
        <path class="cls-1" d="M144.4,210.7c.8,0,1.6.1,2.3.4l-.8,6.3c-.5-.2-1-.2-1.8-.2-1.6,0-2.8.6-3.6,1.9s-1.3,3-1.3,5.4v13.9h-6.5v-27.1h5.3l.7,4.2h.2c.7-1.7,1.5-2.9,2.3-3.6s1.8-1.1,2.9-1.1Z"/>
        <path class="cls-1" d="M172.6,220.2c0,5.9-1.2,10.3-3.6,13.5-2.4,3.1-5.8,4.7-10.3,4.7h-8.7v-35.5h9.5c4.1,0,7.3,1.5,9.6,4.6s3.5,7.3,3.5,12.8ZM165.8,220.4c0-7.9-2.2-11.9-6.6-11.9h-2.6v24h2.1c2.4,0,4.2-1,5.3-3s1.7-5.1,1.7-9.1Z"/>
        <path class="cls-1" d="M187.4,238.8c-3.4,0-6.1-1.2-8-3.6-2-2.4-2.9-5.8-2.9-10.2s.9-8,2.6-10.5,4.2-3.8,7.4-3.8,5.3,1.1,7,3.2,2.6,5.2,2.6,9v3.5h-13c0,2.4.5,4.2,1.5,5.4s2.2,1.8,3.9,1.8,4.3-.7,6.5-2v5.3c-2.1,1.2-4.6,1.9-7.5,1.9ZM186.4,215.7c-.9,0-1.7.5-2.3,1.5s-.9,2.5-1,4.6h6.6c0-2-.3-3.5-.9-4.5s-1.3-1.5-2.3-1.5Z"/>
        <path class="cls-1" d="M214.8,230.4c0,2.6-.8,4.7-2.3,6.2-1.5,1.5-3.8,2.2-6.8,2.2s-4.9-.5-6.6-1.6v-5.6c.9.6,1.9,1.1,3.1,1.5s2.2.6,3.1.6,1.8-.2,2.3-.7.8-1.1.8-2-.3-1.5-.8-2.2-1.6-1.4-3-2.3c-2-1.2-3.4-2.4-4.2-3.7s-1.3-2.9-1.3-4.7.8-4.1,2.4-5.5,3.7-2,6.5-2,4.7.6,6.8,1.9l-2.1,4.6c-1.7-.9-3.3-1.4-4.6-1.4s-1.4.2-1.9.7-.6,1-.6,1.6.3,1.4.8,1.9,1.5,1.3,2.9,2.1c1.7,1,2.9,1.9,3.5,2.6s1.2,1.5,1.6,2.4.6,2,.6,3.2Z"/>
        <path class="cls-1" d="M218.7,204.1c0-1.1.3-1.9.9-2.5s1.5-.9,2.6-.9,1.9.3,2.5.9.9,1.5.9,2.5-.3,2-1,2.6-1.5.9-2.5.9-1.9-.3-2.6-.9-1-1.5-1-2.6ZM225.4,238.3h-6.5v-27.1h6.5v27.1Z"/>
        <path class="cls-1" d="M250.5,211.3v3.8l-3.2.7c.6,1.1.9,2.6.9,4.3,0,2.9-.8,5.1-2.3,6.7s-3.7,2.4-6.5,2.4-1.4,0-1.8-.2c-.3.3-.6.6-.9.9s-.4.8-.4,1.3c0,1.1,1,1.7,2.9,1.7h3.9c2.3,0,4.1.6,5.3,1.9,1.2,1.2,1.9,3.1,1.9,5.6s-1.1,5.6-3.2,7.3-5.1,2.6-9.1,2.6-5.3-.7-6.9-2c-1.6-1.3-2.4-3.2-2.4-5.6s.5-2.8,1.4-4c.9-1.1,2.2-2,3.8-2.5-.8-.3-1.5-.8-2-1.5-.5-.7-.8-1.5-.8-2.4s0-1,.2-1.5.4-.9.7-1.3c.3-.4.9-1,1.8-1.8-1.1-.7-2-1.7-2.6-3.1s-1-3-1-4.7c0-3,.8-5.3,2.3-6.9s3.8-2.4,6.7-2.4,1.2,0,1.9.2,1.3.2,1.6.4h7.7ZM234.5,242.2c0,1.1.3,1.9,1,2.5.7.6,1.6.9,2.9.9,2,0,3.4-.4,4.4-1.1,1-.7,1.5-1.8,1.5-3.1s-.3-1.7-.8-2.2c-.5-.4-1.5-.6-3-.6h-3.1c-.9,0-1.6.3-2.1,1-.5.7-.8,1.5-.8,2.7ZM236.5,220.1c0,3.2.9,4.8,2.7,4.8s2.6-1.6,2.6-4.8-.9-5-2.6-5-2.7,1.7-2.7,5Z"/>
        <path class="cls-1" d="M267.2,238.3v-16.1c0-2-.2-3.4-.7-4.4s-1.2-1.5-2.3-1.5-2.4.7-3.1,2.1-1,3.7-1,7v13h-6.5v-27.1h5.1l.8,3.5h.4c.6-1.2,1.4-2.2,2.5-2.9s2.4-1.1,3.8-1.1c2.5,0,4.3.8,5.5,2.5s1.8,4.1,1.8,7.4v17.7h-6.5Z"/>
        <path class="cls-1" d="M290.1,218.6h10.9v18.2c-3.1,1.3-6.4,2-9.8,2s-7.3-1.6-9.5-4.7c-2.2-3.1-3.3-7.7-3.3-13.6s1.3-10.2,3.8-13.4c2.6-3.2,6.1-4.8,10.7-4.8s5.5.7,8.1,2.2l-2.1,5.4c-2-1.2-3.9-1.7-5.6-1.7-2.5,0-4.5,1.1-6,3.4s-2.2,5.3-2.2,9.2.5,7,1.6,9.2c1.1,2.1,2.6,3.2,4.6,3.2s2.2-.1,3.3-.4v-8.1h-4.4v-5.8Z"/>
        <path class="cls-1" d="M305.7,204.1c0-1.1.3-1.9.9-2.5s1.5-.9,2.6-.9,1.9.3,2.5.9.9,1.5.9,2.5-.3,2-1,2.6-1.5.9-2.5.9-1.9-.3-2.6-.9-1-1.5-1-2.6ZM312.5,238.3h-6.5v-27.1h6.5v27.1Z"/>
        <path class="cls-1" d="M329.6,210.7c.8,0,1.6.1,2.3.4l-.8,6.3c-.5-.2-1-.2-1.8-.2-1.6,0-2.8.6-3.6,1.9s-1.3,3-1.3,5.4v13.9h-6.5v-27.1h5.3l.7,4.2h.2c.7-1.7,1.5-2.9,2.3-3.6s1.8-1.1,2.9-1.1Z"/>
        <path class="cls-1" d="M341.3,238.3h-6.5v-37.8h6.5v37.8Z"/>
        <path class="cls-1" d="M359.4,238.3v-35.5h6.6v29.7h9.2v5.8h-15.8Z"/>
        <path class="cls-1" d="M379.4,238.3v-35.5h6.6v29.7h9.2v5.8h-15.8Z"/>
        <path class="cls-1" d="M411.2,208c-1.9,0-3.4,1.1-4.5,3.3-1.1,2.2-1.6,5.3-1.6,9.3,0,8.2,2.1,12.3,6.4,12.3s3.8-.6,5.9-1.8v5.9c-1.7,1.2-4,1.7-6.7,1.7-4,0-7.1-1.6-9.2-4.8-2.1-3.2-3.2-7.7-3.2-13.4s1.1-10.3,3.3-13.5c2.2-3.2,5.3-4.8,9.2-4.8s2.5.2,3.7.5c1.2.4,2.5,1,3.8,1.9l-2.2,5.4c-.7-.5-1.5-1-2.3-1.4s-1.7-.6-2.7-.6Z"/>
      </g>
    </g>
  </g>
</svg>